<?xml version="1.0" encoding="utf-8"?>
<!-- Generator: Adobe Illustrator 21.0.0, SVG Export Plug-In . SVG Version: 6.00 Build 0)  -->
<svg version="1.1" id="Capa_1" xmlns="http://www.w3.org/2000/svg" xmlns:xlink="http://www.w3.org/1999/xlink" x="0px" y="0px"
	 viewBox="0 0 438.9 512" style="enable-background:new 0 0 438.9 512;" xml:space="preserve">
<style type="text/css">
	.st0{opacity:0.8;}
	.st1{fill:#F6F6F6;}
	.st2{fill:#A61281;}
</style>
<g class="st0">
	<g>
		<path class="st1" d="M390.1,0H48.8C21.8,0,0,21.8,0,48.8v341.3c0,26.9,21.8,48.8,48.8,48.8h97.5l73.1,73.1l73.1-73.1h97.5
			c26.9,0,48.8-21.8,48.8-48.8V48.8C438.9,21.8,417,0,390.1,0z"/>
	</g>
</g>
<g>
	<g>
		<path class="st2" d="M255.2,297.5l-34.9-129.6l-35.4,129.6c-2.8,9.8-4.9,16.9-6.6,21.2s-4.4,8.1-8.5,11.5c-4,3.4-9.4,5.1-16.1,5.1
			c-5.4,0-9.9-1-13.3-3c-3.5-2-6.3-4.9-8.5-8.6c-2.2-3.7-3.9-8.1-5.3-13.1c-1.4-5.1-2.6-9.8-3.7-14.1L87,151
			c-2.2-8.5-3.2-14.9-3.2-19.3c0-5.6,2-10.3,5.9-14.2c3.9-3.8,8.8-5.8,14.6-5.8c8,0,13.3,2.6,16.1,7.7c2.8,5.1,5.2,12.5,7.2,22.3
			l28.3,126.2l31.7-118.1c2.4-9,4.5-15.9,6.3-20.6c1.9-4.7,4.9-8.8,9.1-12.2c4.2-3.4,10-5.2,17.3-5.2c7.4,0,13.1,1.8,17.2,5.4
			c4.1,3.6,6.9,7.5,8.5,11.7c1.6,4.2,3.7,11.2,6.3,20.9l32,118.1l28.3-126.2c1.4-6.6,2.7-11.7,3.9-15.5c1.2-3.7,3.3-7.1,6.3-10
			c3-2.9,7.3-4.4,13.1-4.4c5.7,0,10.5,1.9,14.5,5.7c4,3.8,6,8.5,6,14.2c0,4-1.1,10.5-3.2,19.3l-36,145.5c-2.5,9.8-4.5,17-6.1,21.6
			c-1.6,4.6-4.4,8.6-8.3,12c-3.9,3.4-9.4,5.2-16.4,5.2c-6.7,0-12-1.7-16.1-5c-4-3.3-6.8-7.1-8.4-11.3
			C260.3,314.8,258.1,307.7,255.2,297.5z"/>
		<path class="st2" d="M1227,136.2v59.7c5.1-5.9,10.1-10.6,15-14c4.9-3.4,10.2-6,16.1-7.7c5.9-1.7,12.2-2.6,19-2.6
			c10.2,0,19.3,2.2,27.2,6.5c7.9,4.3,14.1,10.6,18.7,18.9c2.9,4.8,4.8,10.2,5.8,16.1c1,5.9,1.5,12.8,1.5,20.6v77.1
			c0,8.1-1.8,14.2-5.5,18.3c-3.7,4.1-8.6,6.2-14.7,6.2c-13.3,0-19.9-8.2-19.9-24.5v-68c0-12.9-1.9-22.8-5.8-29.7
			s-11.1-10.4-21.8-10.4c-7.2,0-13.6,2-19.4,6.1c-5.8,4.1-10.1,9.7-12.9,16.7c-2.2,6-3.2,16.7-3.2,32v53.2c0,8-1.8,14-5.4,18.2
			c-3.6,4.2-8.6,6.3-15,6.3c-13.3,0-19.9-8.2-19.9-24.5V136.2c0-8.2,1.7-14.3,5.2-18.4c3.5-4.1,8.4-6.1,14.7-6.1
			c6.4,0,11.4,2.1,15,6.2C1225.2,122,1227,128.1,1227,136.2z"/>
	</g>
</g>
</svg>
